<?xml version="1.0" encoding="UTF-8"?>
<svg width="700pt" height="700pt" version="1.1" viewBox="0 0 700 700" xmlns="http://www.w3.org/2000/svg">
 <g>
  <path d="m513.33 128.33c19.367 0 35 15.633 35 35v233.33c0 19.367-15.633 35-35 35l-326.66 0.003907c-19.367 0-35-15.633-35-35v-233.34c0-19.367 15.633-35 35-35h326.67m0-35h-326.67c-38.734 0-70 31.266-70 70v233.33c0 38.734 31.266 70 70 70h326.67c38.734 0 70-31.266 70-70l-0.003907-233.33c0-38.734-31.266-70-70-70z"/>
  <path d="m245 198.33c12.832 0 23.332 10.5 23.332 23.332 0 12.832-10.5 23.332-23.332 23.332s-23.332-10.5-23.332-23.332c0-12.832 10.5-23.332 23.332-23.332m0-35c-32.199 0-58.332 26.133-58.332 58.332 0 32.199 26.133 58.332 58.332 58.332s58.332-26.133 58.332-58.332c0-32.199-26.133-58.332-58.332-58.332z"/>
  <path d="m525.7 267.63-46.668-46.668c-6.7656-6.7656-17.965-6.7656-24.734 0l-69.301 69.301-22.633-22.633c-6.7656-6.7656-17.965-6.7656-24.734 0l-116.67 116.67c-6.7656 6.7656-6.7656 17.965 0 24.734 3.5 3.5 7.9336 5.1328 12.367 5.1328s8.8672-1.6328 12.367-5.1328l104.3-104.3 57.633 57.633c6.7656 6.7656 17.965 6.7656 24.734 0 6.7656-6.7656 6.7656-17.965 0-24.734l-22.633-22.633 56.934-56.934 34.301 34.301c6.7656 6.7656 17.965 6.7656 24.734 0 6.7656-6.7656 6.7656-17.965 0-24.734z"/>
 </g>
</svg>
